<svg xmlns="http://www.w3.org/2000/svg" width="50" height="50" viewBox="0 0 380 354">
  <g id="Group_1" data-name="Group 1" transform="translate(-463 -298)">
    <g id="Rectangle_1" data-name="Rectangle 1" transform="translate(494 442)" fill="none" stroke="#000" stroke-width="5">
      <rect width="320" height="210" stroke="none"/>
      <rect x="2.5" y="2.5" width="315" height="205" fill="none"/>
    </g>
    <g id="Rectangle_2" data-name="Rectangle 2" transform="translate(615 562)" fill="none" stroke="#000" stroke-width="5">
      <rect width="80" height="90" stroke="none"/>
      <rect x="2.5" y="2.5" width="75" height="85" fill="none"/>
    </g>
    <g id="Polygon_1" data-name="Polygon 1" transform="translate(463 298)" fill="none" stroke-linejoin="round" >
      <path d="M 351.1950378417969 147.4999847412109 L 28.80498504638672 147.4999847412109 C 24.87121200561523 147.4999847412109 22.56571197509766 144.8963012695312 21.71980285644531 142.4596710205078 C 20.87389373779297 140.0230712890625 21.07007598876953 136.5508880615234 24.15762138366699 134.1133880615234 L 185.3526153564453 6.854166507720947 C 186.6704864501953 5.813757419586182 188.3209381103516 5.240757465362549 189.9999847412109 5.240757465362549 C 191.6790313720703 5.240757465362549 193.3294830322266 5.813757419586182 194.6473541259766 6.854166507720947 L 355.8424072265625 134.1133880615234 C 358.929931640625 136.5509338378906 359.1261291503906 140.0230712890625 358.2802124023438 142.459716796875 C 357.4342956542969 144.8963470458984 355.1288146972656 147.4999847412109 351.1950378417969 147.4999847412109 Z" stroke="none"/>
      <path d="M 189.9999847412109 7.740753173828125 C 188.8643798828125 7.740753173828125 187.7930297851562 8.112701416015625 186.9017333984375 8.816299438476562 L 25.706787109375 136.0755462646484 C 23.11627197265625 138.1206970214844 23.80783081054688 140.8515472412109 24.08148193359375 141.6398010253906 C 24.35513305664062 142.4281005859375 25.50454711914062 145 28.804931640625 145 L 351.1950378417969 145 C 354.4954223632812 145 355.6448364257812 142.4281005859375 355.9184875488281 141.6398010253906 C 356.192138671875 140.8515472412109 356.8836975097656 138.1206512451172 354.2932739257812 136.0755462646484 L 193.0982360839844 8.81634521484375 C 192.2069396972656 8.112701416015625 191.1355895996094 7.740753173828125 189.9999847412109 7.740753173828125 M 189.9999847412109 2.740753173828125 C 192.18994140625 2.740753173828125 194.3798828125 3.457794189453125 196.1964416503906 4.891891479492188 L 357.3914794921875 132.1511535644531 C 364.836181640625 138.0285949707031 360.6801452636719 150 351.1950378417969 150 L 28.804931640625 150 C 19.31982421875 150 15.16378784179688 138.0285949707031 22.6085205078125 132.1511535644531 L 183.8035278320312 4.891891479492188 C 185.6200866699219 3.457794189453125 187.8100280761719 2.740753173828125 189.9999847412109 2.740753173828125 Z" stroke="none" fill="#000"/>
    </g>
  </g>
</svg>
